<?xml version="1.0" encoding="utf-8"?>
<!-- Generator: Adobe Illustrator 19.0.0, SVG Export Plug-In . SVG Version: 6.00 Build 0)  -->
<svg version="1.1" id="图层_1" xmlns="http://www.w3.org/2000/svg" xmlns:xlink="http://www.w3.org/1999/xlink" x="0px" y="0px"
	 width="306.5px" height="327.4px" viewBox="0 0 306.5 327.4" style="enable-background:new 0 0 306.5 327.4;" xml:space="preserve"
	>
<style type="text/css">
	.st0{fill:none;stroke:#E4E4E6;stroke-width:1.9779;stroke-miterlimit:10;}
	.st1{fill:none;}
	.st2{fill:#E4E4E6;}
	.st3{fill:#FFFFFF;}
	.st4{fill:#FFE13F;}
	.st5{fill:#00A9D8;}
</style>
<g id="XMLID_13_">
	<g id="XMLID_758_">
		<g id="XMLID_763_">
			
				<rect id="XMLID_768_" x="31.3" y="16.5" transform="matrix(0.7071 -0.7071 0.7071 0.7071 -10.044 32.7548)" class="st0" width="6.4" height="24"/>
			
				<rect id="XMLID_765_" x="48" y="0.1" transform="matrix(0.7071 -0.7071 0.7071 0.7071 6.5024 39.6086)" class="st0" width="6.1" height="23.7"/>
			
				<rect id="XMLID_764_" x="34.3" y="10.8" transform="matrix(0.7071 -0.7071 0.7071 0.7071 -1.7125 36.2058)" class="st0" width="17.1" height="18.7"/>
		</g>
		<g id="XMLID_759_">
			<line id="XMLID_762_" class="st0" x1="42.7" y1="26.9" x2="36" y2="20.2"/>
			<line id="XMLID_761_" class="st0" x1="39.3" y1="23.8" x2="46.3" y2="16.9"/>
			<polyline id="XMLID_760_" class="st0" points="40.4,16.1 46.3,16.9 47.1,22.8 			"/>
		</g>
	</g>
	<g id="XMLID_747_">
		<g id="XMLID_752_">
			
				<rect id="XMLID_757_" x="62.6" y="184.2" transform="matrix(0.7071 -0.7071 0.7071 0.7071 -119.4772 104.0261)" class="st0" width="6.4" height="24"/>
			
				<rect id="XMLID_754_" x="79.3" y="167.8" transform="matrix(0.7071 -0.7071 0.7071 0.7071 -102.9308 110.8799)" class="st0" width="6.1" height="23.7"/>
			
				<rect id="XMLID_753_" x="65.6" y="178.5" transform="matrix(0.7071 -0.7071 0.7071 0.7071 -111.1458 107.4771)" class="st0" width="17.1" height="18.7"/>
		</g>
		<g id="XMLID_748_">
			<line id="XMLID_751_" class="st0" x1="74" y1="194.7" x2="67.3" y2="187.9"/>
			<line id="XMLID_750_" class="st0" x1="70.6" y1="191.6" x2="77.6" y2="184.6"/>
			<polyline id="XMLID_749_" class="st0" points="71.7,183.8 77.6,184.6 78.4,190.5 			"/>
		</g>
	</g>
	<g id="XMLID_735_">
		<g id="XMLID_741_">
			<rect id="XMLID_746_" x="168" y="43" class="st0" width="24" height="6.4"/>
			<rect id="XMLID_743_" x="168.2" y="19.7" class="st0" width="23.7" height="6.1"/>
			<rect id="XMLID_742_" x="170.6" y="25.9" class="st0" width="18.7" height="17.1"/>
		</g>
		<g id="XMLID_736_">
			<line id="XMLID_740_" class="st0" x1="175.2" y1="39.7" x2="184.7" y2="39.7"/>
			<g id="XMLID_737_">
				<line id="XMLID_739_" class="st0" x1="180.1" y1="29.5" x2="180.1" y2="38.4"/>
				<polyline id="XMLID_738_" class="st0" points="184.8,34.9 180.1,38.5 175.3,34.9 				"/>
			</g>
		</g>
	</g>
	<g id="XMLID_725_">
		<rect id="XMLID_734_" x="24.5" y="272.5" class="st0" width="6.4" height="24"/>
		<rect id="XMLID_731_" x="1.2" y="272.7" class="st0" width="6.1" height="23.7"/>
		<rect id="XMLID_730_" x="7.4" y="275.2" class="st0" width="17.1" height="18.7"/>
		<circle id="XMLID_727_" class="st0" cx="15.9" cy="284.5" r="4.4"/>
		<circle id="XMLID_726_" class="st0" cx="15.9" cy="284.5" r="0.5"/>
	</g>
	<g id="XMLID_714_">
		<g id="XMLID_719_">
			
				<rect id="XMLID_724_" x="209.6" y="296.6" transform="matrix(0.7071 -0.7071 0.7071 0.7071 -155.88 240.8532)" class="st0" width="6.4" height="24"/>
			
				<rect id="XMLID_721_" x="226.3" y="280.2" transform="matrix(0.7071 -0.7071 0.7071 0.7071 -139.3336 247.707)" class="st0" width="6.1" height="23.7"/>
			
				<rect id="XMLID_720_" x="212.6" y="290.9" transform="matrix(0.7071 -0.7071 0.7071 0.7071 -147.5486 244.3042)" class="st0" width="17.1" height="18.7"/>
		</g>
		<g id="XMLID_715_">
			<line id="XMLID_718_" class="st0" x1="220.9" y1="307" x2="214.2" y2="300.3"/>
			<line id="XMLID_717_" class="st0" x1="217.6" y1="303.9" x2="224.6" y2="296.9"/>
			<polyline id="XMLID_716_" class="st0" points="218.7,296.2 224.5,297 225.4,302.9 			"/>
		</g>
	</g>
	<g id="XMLID_702_">
		<g id="XMLID_708_">
			<rect id="XMLID_713_" x="253" y="207.8" class="st0" width="24" height="6.4"/>
			<rect id="XMLID_710_" x="253.2" y="184.6" class="st0" width="23.7" height="6.1"/>
			<rect id="XMLID_709_" x="255.7" y="190.7" class="st0" width="18.7" height="17.1"/>
		</g>
		<g id="XMLID_703_">
			<line id="XMLID_707_" class="st0" x1="260.2" y1="204.5" x2="269.7" y2="204.5"/>
			<g id="XMLID_704_">
				<line id="XMLID_706_" class="st0" x1="265.1" y1="194.3" x2="265.1" y2="203.3"/>
				<polyline id="XMLID_705_" class="st0" points="269.9,199.8 265.1,203.3 260.4,199.8 				"/>
			</g>
		</g>
	</g>
	<g id="XMLID_690_">
		<g id="XMLID_696_">
			<rect id="XMLID_701_" x="50" y="266.8" class="st0" width="24" height="6.4"/>
			<rect id="XMLID_698_" x="50.1" y="243.6" class="st0" width="23.7" height="6.1"/>
			<rect id="XMLID_697_" x="52.6" y="249.7" class="st0" width="18.7" height="17.1"/>
		</g>
		<g id="XMLID_691_">
			<line id="XMLID_695_" class="st0" x1="57.2" y1="263.5" x2="66.7" y2="263.5"/>
			<g id="XMLID_692_">
				<line id="XMLID_694_" class="st0" x1="62.1" y1="253.3" x2="62.1" y2="262.3"/>
				<polyline id="XMLID_693_" class="st0" points="66.8,258.8 62.1,262.3 57.3,258.8 				"/>
			</g>
		</g>
	</g>
	<g id="XMLID_680_">
		<rect id="XMLID_689_" x="299.1" y="92.4" class="st0" width="6.4" height="24"/>
		<rect id="XMLID_686_" x="275.8" y="92.6" class="st0" width="6.1" height="23.7"/>
		<rect id="XMLID_685_" x="282" y="95" class="st0" width="17.1" height="18.7"/>
		<circle id="XMLID_682_" class="st0" cx="290.5" cy="104.4" r="4.4"/>
		<circle id="XMLID_681_" class="st0" cx="290.5" cy="104.4" r="0.5"/>
	</g>
	<g id="XMLID_668_">
		<g id="XMLID_674_">
			<rect id="XMLID_679_" x="273.8" y="320" class="st0" width="24" height="6.4"/>
			<rect id="XMLID_676_" x="274" y="296.8" class="st0" width="23.7" height="6.1"/>
			<rect id="XMLID_675_" x="276.5" y="302.9" class="st0" width="18.7" height="17.1"/>
		</g>
		<g id="XMLID_669_">
			<line id="XMLID_673_" class="st0" x1="281" y1="316.7" x2="290.5" y2="316.7"/>
			<g id="XMLID_670_">
				<line id="XMLID_672_" class="st0" x1="286" y1="306.5" x2="286" y2="315.5"/>
				<polyline id="XMLID_671_" class="st0" points="290.7,312 285.9,315.5 281.2,312 				"/>
			</g>
		</g>
	</g>
	<g id="XMLID_654_">
		<g id="XMLID_663_">
			<path id="XMLID_667_" class="st1" d="M87.3,119.1c-0.5,0.9-3,2.9-3.9,2.4l0,0c-0.9-0.5-0.4-3.7,0.1-4.6l4.3-7.6
				c0.5-0.9,1.6-1.2,2.5-0.7l0.6,0.3c0.9,0.5,1.2,1.6,0.7,2.5L87.3,119.1z"/>
			<path id="XMLID_664_" class="st2" d="M83.8,122.3c-0.3,0-0.5-0.1-0.7-0.2c-0.7-0.4-0.9-1.3-0.8-2.8c0.1-1.1,0.3-2.2,0.6-2.7
				l4.3-7.6c0.5-0.8,1.3-1.3,2.2-1.3c0.4,0,0.9,0.1,1.2,0.3l0.6,0.3c0.6,0.3,1,0.9,1.2,1.5c0.2,0.7,0.1,1.3-0.2,1.9l-4.3,7.6
				C87.5,120.3,85.2,122.3,83.8,122.3z M89.4,109.1c-0.4,0-0.8,0.2-1,0.6l-4.3,7.6c-0.4,0.8-0.7,3.2-0.3,3.6c0.7,0,2.6-1.5,2.9-2.2
				l4.3-7.6c0.2-0.3,0.2-0.6,0.1-0.9c-0.1-0.3-0.3-0.5-0.6-0.7l-0.6-0.3C89.8,109.1,89.6,109.1,89.4,109.1z"/>
		</g>
		<g id="XMLID_661_">
			
				<rect id="XMLID_662_" x="86.8" y="111" transform="matrix(0.8717 0.4901 -0.4901 0.8717 66.1567 -29.2649)" class="st2" width="4.4" height="1.4"/>
		</g>
		<g id="XMLID_659_">
			<rect id="XMLID_660_" x="87.5" y="120.9" class="st2" width="1.6" height="1.6"/>
		</g>
		<g id="XMLID_657_">
			<rect id="XMLID_658_" x="90.8" y="120.9" class="st2" width="1.6" height="1.6"/>
		</g>
		<g id="XMLID_655_">
			<rect id="XMLID_656_" x="94" y="120.9" class="st2" width="1.6" height="1.6"/>
		</g>
	</g>
	<g id="XMLID_645_">
		<g id="XMLID_650_">
			<path id="XMLID_651_" class="st2" d="M21.8,166.6c-4.5,0-8.1-3.6-8.1-8.1s3.6-8.1,8.1-8.1s8.1,3.6,8.1,8.1S26.3,166.6,21.8,166.6
				z M21.8,152.8c-3.1,0-5.7,2.5-5.7,5.7c0,3.1,2.5,5.7,5.7,5.7s5.7-2.5,5.7-5.7C27.5,155.4,25,152.8,21.8,152.8z"/>
		</g>
		<g id="XMLID_646_">
			<path id="XMLID_647_" class="st2" d="M21.8,163c-2.5,0-4.5-2-4.5-4.5c0-2.5,2-4.5,4.5-4.5c2.5,0,4.5,2,4.5,4.5
				C26.4,161,24.3,163,21.8,163z M21.8,156.5c-1.1,0-2.1,0.9-2.1,2.1s0.9,2.1,2.1,2.1c1.1,0,2.1-0.9,2.1-2.1S23,156.5,21.8,156.5z"
				/>
		</g>
	</g>
	<g id="XMLID_636_">
		<g id="XMLID_641_">
			<path id="XMLID_642_" class="st2" d="M133.4,268.2c-4.5,0-8.1-3.6-8.1-8.1c0-4.5,3.6-8.1,8.1-8.1c4.5,0,8.1,3.6,8.1,8.1
				C141.5,264.5,137.9,268.2,133.4,268.2z M133.4,254.4c-3.1,0-5.7,2.5-5.7,5.7s2.5,5.7,5.7,5.7c3.1,0,5.7-2.5,5.7-5.7
				S136.5,254.4,133.4,254.4z"/>
		</g>
		<g id="XMLID_637_">
			<path id="XMLID_638_" class="st2" d="M133.4,264.5c-2.5,0-4.5-2-4.5-4.5c0-2.5,2-4.5,4.5-4.5c2.5,0,4.5,2,4.5,4.5
				C137.9,262.5,135.9,264.5,133.4,264.5z M133.4,258c-1.1,0-2.1,0.9-2.1,2.1s0.9,2.1,2.1,2.1c1.1,0,2.1-0.9,2.1-2.1
				S134.5,258,133.4,258z"/>
		</g>
	</g>
	<g id="XMLID_624_">
		<g id="XMLID_631_">
			<rect id="XMLID_635_" x="254.5" y="117.3" class="st1" width="9.8" height="16"/>
			<path id="XMLID_632_" class="st2" d="M265,134h-11.2v-17.4H265V134z M255.2,132.6h8.4v-14.6h-8.4V132.6z"/>
		</g>
		<g id="XMLID_629_">
			<circle id="XMLID_630_" class="st2" cx="259.4" cy="129.5" r="1.1"/>
		</g>
		<g id="XMLID_627_">
			<rect id="XMLID_628_" x="256.4" y="119.9" class="st2" width="6" height="1.6"/>
		</g>
		<g id="XMLID_625_">
			<rect id="XMLID_626_" x="256.4" y="123.2" class="st2" width="6" height="1.6"/>
		</g>
	</g>
	<g id="XMLID_585_">
		<g id="XMLID_619_">
			<rect id="XMLID_623_" x="217.2" y="67.2" class="st1" width="12" height="12"/>
			<path id="XMLID_620_" class="st2" d="M229.9,79.8h-13.4V66.5h13.4V79.8z M217.9,78.4h10.6V67.9h-10.6V78.4z"/>
		</g>
		<g id="XMLID_614_">
			<rect id="XMLID_618_" x="220" y="69.9" class="st1" width="6.4" height="6.4"/>
			<path id="XMLID_615_" class="st2" d="M227.1,77.1h-7.8v-7.8h7.8V77.1z M220.7,75.7h5v-5h-5V75.7z"/>
		</g>
		<g id="XMLID_607_">
			<g id="XMLID_612_">
				<rect id="XMLID_613_" x="215.5" y="69.2" class="st2" width="1.7" height="1.6"/>
			</g>
			<g id="XMLID_610_">
				<rect id="XMLID_611_" x="215.5" y="72.4" class="st2" width="1.7" height="1.6"/>
			</g>
			<g id="XMLID_608_">
				<rect id="XMLID_609_" x="215.5" y="75.7" class="st2" width="1.7" height="1.6"/>
			</g>
		</g>
		<g id="XMLID_600_">
			<g id="XMLID_605_">
				<rect id="XMLID_606_" x="229.2" y="69.1" class="st2" width="1.7" height="1.6"/>
			</g>
			<g id="XMLID_603_">
				<rect id="XMLID_604_" x="229.2" y="72.4" class="st2" width="1.7" height="1.6"/>
			</g>
			<g id="XMLID_601_">
				<rect id="XMLID_602_" x="229.2" y="75.6" class="st2" width="1.7" height="1.6"/>
			</g>
		</g>
		<g id="XMLID_593_">
			<g id="XMLID_598_">
				<rect id="XMLID_599_" x="225.6" y="65.5" class="st2" width="1.6" height="1.7"/>
			</g>
			<g id="XMLID_596_">
				<rect id="XMLID_597_" x="222.4" y="65.5" class="st2" width="1.6" height="1.7"/>
			</g>
			<g id="XMLID_594_">
				<rect id="XMLID_595_" x="219.1" y="65.5" class="st2" width="1.6" height="1.7"/>
			</g>
		</g>
		<g id="XMLID_586_">
			<g id="XMLID_591_">
				<rect id="XMLID_592_" x="225.7" y="79.2" class="st2" width="1.6" height="1.7"/>
			</g>
			<g id="XMLID_589_">
				<rect id="XMLID_590_" x="222.4" y="79.2" class="st2" width="1.6" height="1.7"/>
			</g>
			<g id="XMLID_587_">
				<rect id="XMLID_588_" x="219.2" y="79.2" class="st2" width="1.6" height="1.7"/>
			</g>
		</g>
	</g>
	<g id="XMLID_57_">
		<g id="XMLID_95_">
			<rect id="XMLID_99_" x="49.5" y="309.4" class="st1" width="12" height="12"/>
			<path id="XMLID_96_" class="st2" d="M62.2,322.1H48.8v-13.4h13.4V322.1z M50.2,320.7h10.6v-10.6H50.2V320.7z"/>
		</g>
		<g id="XMLID_89_">
			<rect id="XMLID_93_" x="52.3" y="312.2" class="st1" width="6.4" height="6.4"/>
			<path id="XMLID_90_" class="st2" d="M59.4,319.3h-7.8v-7.8h7.8V319.3z M53,317.9h5v-5h-5V317.9z"/>
		</g>
		<g id="XMLID_81_">
			<g id="XMLID_87_">
				<rect id="XMLID_88_" x="47.8" y="311.5" class="st2" width="1.7" height="1.6"/>
			</g>
			<g id="XMLID_84_">
				<rect id="XMLID_85_" x="47.8" y="314.6" class="st2" width="1.7" height="1.6"/>
			</g>
			<g id="XMLID_82_">
				<rect id="XMLID_83_" x="47.8" y="318" class="st2" width="1.7" height="1.6"/>
			</g>
		</g>
		<g id="XMLID_72_">
			<g id="XMLID_77_">
				<rect id="XMLID_78_" x="61.5" y="311.4" class="st2" width="1.7" height="1.6"/>
			</g>
			<g id="XMLID_75_">
				<rect id="XMLID_76_" x="61.5" y="314.6" class="st2" width="1.7" height="1.6"/>
			</g>
			<g id="XMLID_73_">
				<rect id="XMLID_74_" x="61.5" y="317.9" class="st2" width="1.7" height="1.6"/>
			</g>
		</g>
		<g id="XMLID_65_">
			<g id="XMLID_70_">
				<rect id="XMLID_71_" x="58" y="307.7" class="st2" width="1.6" height="1.7"/>
			</g>
			<g id="XMLID_68_">
				<rect id="XMLID_69_" x="54.7" y="307.7" class="st2" width="1.6" height="1.7"/>
			</g>
			<g id="XMLID_66_">
				<rect id="XMLID_67_" x="51.5" y="307.7" class="st2" width="1.6" height="1.7"/>
			</g>
		</g>
		<g id="XMLID_58_">
			<g id="XMLID_63_">
				<rect id="XMLID_64_" x="58" y="321.4" class="st2" width="1.6" height="1.7"/>
			</g>
			<g id="XMLID_61_">
				<rect id="XMLID_62_" x="54.7" y="321.4" class="st2" width="1.6" height="1.7"/>
			</g>
			<g id="XMLID_59_">
				<rect id="XMLID_60_" x="51.5" y="321.4" class="st2" width="1.6" height="1.7"/>
			</g>
		</g>
	</g>
	<g id="XMLID_558_">
		<g id="XMLID_580_">
			<rect id="XMLID_584_" x="0.7" y="181.1" class="st1" width="15.4" height="4.9"/>
			<path id="XMLID_581_" class="st2" d="M16.8,186.7H0v-6.3h16.8V186.7z M1.4,185.3h14v-3.5h-14V185.3z"/>
		</g>
		<g id="XMLID_575_">
			<rect id="XMLID_579_" x="0.7" y="188.1" class="st1" width="15.4" height="4.9"/>
			<path id="XMLID_576_" class="st2" d="M16.8,193.7H0v-6.3h16.8V193.7z M1.4,192.3h14v-3.5h-14V192.3z"/>
		</g>
		<g id="XMLID_573_">
			<rect id="XMLID_574_" x="2.7" y="182.8" class="st2" width="1.4" height="1.5"/>
		</g>
		<g id="XMLID_571_">
			<rect id="XMLID_572_" x="4.9" y="182.8" class="st2" width="1.4" height="1.5"/>
		</g>
		<g id="XMLID_569_">
			<rect id="XMLID_570_" x="7.1" y="182.8" class="st2" width="1.4" height="1.5"/>
		</g>
		<g id="XMLID_567_">
			<rect id="XMLID_568_" x="10.6" y="182.8" class="st2" width="3.5" height="1.5"/>
		</g>
		<g id="XMLID_565_">
			<rect id="XMLID_566_" x="2.7" y="189.8" class="st2" width="1.4" height="1.5"/>
		</g>
		<g id="XMLID_563_">
			<rect id="XMLID_564_" x="4.9" y="189.8" class="st2" width="1.4" height="1.5"/>
		</g>
		<g id="XMLID_561_">
			<rect id="XMLID_562_" x="7.1" y="189.8" class="st2" width="1.4" height="1.5"/>
		</g>
		<g id="XMLID_559_">
			<rect id="XMLID_560_" x="10.6" y="189.8" class="st2" width="3.5" height="1.5"/>
		</g>
	</g>
	<g id="XMLID_531_">
		<g id="XMLID_553_">
			<rect id="XMLID_557_" x="113.9" y="141.9" class="st1" width="15.4" height="4.9"/>
			<path id="XMLID_554_" class="st2" d="M130,147.6h-16.8v-6.3H130V147.6z M114.6,146.2h14v-3.5h-14V146.2z"/>
		</g>
		<g id="XMLID_548_">
			<rect id="XMLID_552_" x="113.9" y="148.9" class="st1" width="15.4" height="4.9"/>
			<path id="XMLID_549_" class="st2" d="M130,154.5h-16.8v-6.3H130V154.5z M114.6,153.2h14v-3.5h-14V153.2z"/>
		</g>
		<g id="XMLID_546_">
			<rect id="XMLID_547_" x="115.9" y="143.7" class="st2" width="1.4" height="1.5"/>
		</g>
		<g id="XMLID_544_">
			<rect id="XMLID_545_" x="118.1" y="143.7" class="st2" width="1.4" height="1.5"/>
		</g>
		<g id="XMLID_542_">
			<rect id="XMLID_543_" x="120.3" y="143.7" class="st2" width="1.4" height="1.5"/>
		</g>
		<g id="XMLID_540_">
			<rect id="XMLID_541_" x="123.8" y="143.7" class="st2" width="3.5" height="1.5"/>
		</g>
		<g id="XMLID_538_">
			<rect id="XMLID_539_" x="115.9" y="150.7" class="st2" width="1.4" height="1.5"/>
		</g>
		<g id="XMLID_536_">
			<rect id="XMLID_537_" x="118.1" y="150.7" class="st2" width="1.4" height="1.5"/>
		</g>
		<g id="XMLID_534_">
			<rect id="XMLID_535_" x="120.3" y="150.7" class="st2" width="1.4" height="1.5"/>
		</g>
		<g id="XMLID_532_">
			<rect id="XMLID_533_" x="123.8" y="150.7" class="st2" width="3.5" height="1.5"/>
		</g>
	</g>
	<g id="XMLID_510_">
		<g id="XMLID_526_">
			<rect id="XMLID_530_" x="213.8" y="182.4" class="st1" width="8.4" height="13.6"/>
			<path id="XMLID_527_" class="st2" d="M222.9,196.8h-9.8v-15h9.8V196.8z M214.5,195.4h7v-12.2h-7V195.4z"/>
		</g>
		<g id="XMLID_523_">
			<line id="XMLID_525_" class="st3" x1="211.3" y1="182.4" x2="224.8" y2="182.4"/>
			<rect id="XMLID_524_" x="211.3" y="181.8" class="st2" width="13.5" height="1.4"/>
		</g>
		<g id="XMLID_520_">
			<line id="XMLID_522_" class="st3" x1="213.8" y1="185.9" x2="222.2" y2="185.9"/>
			<rect id="XMLID_521_" x="213.8" y="185.2" class="st2" width="8.4" height="1.4"/>
		</g>
		<g id="XMLID_517_">
			<line id="XMLID_519_" class="st3" x1="213.8" y1="189.3" x2="222.2" y2="189.3"/>
			<rect id="XMLID_518_" x="213.8" y="188.6" class="st2" width="8.4" height="1.4"/>
		</g>
		<g id="XMLID_514_">
			<line id="XMLID_516_" class="st3" x1="213.8" y1="192.6" x2="222.2" y2="192.6"/>
			<rect id="XMLID_515_" x="213.8" y="191.9" class="st2" width="8.4" height="1.4"/>
		</g>
		<g id="XMLID_511_">
			<line id="XMLID_513_" class="st3" x1="211.3" y1="196.1" x2="224.8" y2="196.1"/>
			<rect id="XMLID_512_" x="211.3" y="195.4" class="st2" width="13.5" height="1.4"/>
		</g>
	</g>
	<g id="XMLID_489_">
		<g id="XMLID_505_">
			<rect id="XMLID_509_" x="278.6" y="258.5" class="st1" width="8.4" height="13.6"/>
			<path id="XMLID_506_" class="st2" d="M287.7,272.8h-9.8v-15h9.8V272.8z M279.3,271.5h7v-12.2h-7V271.5z"/>
		</g>
		<g id="XMLID_502_">
			<line id="XMLID_504_" class="st3" x1="276" y1="258.5" x2="289.5" y2="258.5"/>
			<rect id="XMLID_503_" x="276" y="257.8" class="st2" width="13.5" height="1.4"/>
		</g>
		<g id="XMLID_499_">
			<line id="XMLID_501_" class="st3" x1="278.6" y1="262" x2="287" y2="262"/>
			<rect id="XMLID_500_" x="278.6" y="261.3" class="st2" width="8.4" height="1.4"/>
		</g>
		<g id="XMLID_496_">
			<line id="XMLID_498_" class="st3" x1="278.6" y1="265.3" x2="287" y2="265.3"/>
			<rect id="XMLID_497_" x="278.6" y="264.6" class="st2" width="8.4" height="1.4"/>
		</g>
		<g id="XMLID_493_">
			<line id="XMLID_495_" class="st3" x1="278.6" y1="268.7" x2="287" y2="268.7"/>
			<rect id="XMLID_494_" x="278.6" y="268" class="st2" width="8.4" height="1.4"/>
		</g>
		<g id="XMLID_490_">
			<line id="XMLID_492_" class="st3" x1="276" y1="272.1" x2="289.5" y2="272.1"/>
			<rect id="XMLID_491_" x="276" y="271.5" class="st2" width="13.5" height="1.4"/>
		</g>
	</g>
	<g id="XMLID_464_">
		<g id="XMLID_484_">
			<path id="XMLID_488_" class="st1" d="M185.2,228.5c0,1.9-1.5,3.4-3.4,3.4H179c-1.9,0-3.4-1.5-3.4-3.4v-6.3c2.5,0,7.4,0,9.6,0
				V228.5z"/>
			<path id="XMLID_485_" class="st2" d="M181.7,232.6H179c-2.3,0-4.1-1.8-4.1-4.1v-7h11v7C185.8,230.7,184,232.6,181.7,232.6z
				 M176.3,222.9v5.6c0,1.5,1.2,2.7,2.7,2.7h2.7c1.5,0,2.7-1.2,2.7-2.7v-5.6H176.3z"/>
		</g>
		<g id="XMLID_481_">
			<line id="XMLID_483_" class="st3" x1="180.4" y1="236.7" x2="180.4" y2="232.1"/>
			<rect id="XMLID_482_" x="179.7" y="232.1" class="st2" width="1.4" height="4.6"/>
		</g>
		<g id="XMLID_470_">
			<g id="XMLID_476_">
				<rect id="XMLID_480_" x="177.3" y="218.4" class="st1" width="2" height="3.8"/>
				<path id="XMLID_477_" class="st2" d="M180,222.9h-3.4v-5.2h3.4V222.9z M178,221.5h0.6v-2.4H178V221.5z"/>
			</g>
			<g id="XMLID_471_">
				<rect id="XMLID_475_" x="181.4" y="218.4" class="st1" width="2" height="3.8"/>
				<path id="XMLID_472_" class="st2" d="M184.2,222.9h-3.4v-5.2h3.4V222.9z M182.1,221.5h0.6v-2.4h-0.6V221.5z"/>
			</g>
		</g>
		<g id="XMLID_465_">
			<rect id="XMLID_469_" x="175.6" y="222.2" class="st1" width="9.6" height="2.7"/>
			<path id="XMLID_466_" class="st2" d="M185.8,225.6h-11v-4.1h11V225.6z M176.3,224.2h8.2v-1.3h-8.2V224.2z"/>
		</g>
	</g>
	<g id="XMLID_815_">
		<g id="XMLID_1160_">
			<path id="XMLID_1168_" class="st1" d="M279.2,66.7c0,1.9-1.5,3.4-3.4,3.4H273c-1.9,0-3.4-1.5-3.4-3.4v-6.3c2.5,0,7.4,0,9.6,0
				V66.7z"/>
			<path id="XMLID_1161_" class="st2" d="M275.8,70.8H273c-2.3,0-4.1-1.8-4.1-4.1v-7h11v7C279.9,69,278,70.8,275.8,70.8z
				 M270.3,61.1v5.6c0,1.5,1.2,2.7,2.7,2.7h2.7c1.5,0,2.7-1.2,2.7-2.7v-5.6H270.3z"/>
		</g>
		<g id="XMLID_1154_">
			<line id="XMLID_1159_" class="st3" x1="274.4" y1="75" x2="274.4" y2="70.4"/>
			<rect id="XMLID_1158_" x="273.7" y="70.4" class="st2" width="1.4" height="4.6"/>
		</g>
		<g id="XMLID_1016_">
			<g id="XMLID_1133_">
				<rect id="XMLID_1153_" x="271.3" y="56.6" class="st1" width="2" height="3.8"/>
				<path id="XMLID_1134_" class="st2" d="M274,61.1h-3.4v-5.2h3.4V61.1z M272,59.7h0.6v-2.4H272V59.7z"/>
			</g>
			<g id="XMLID_1017_">
				<rect id="XMLID_1132_" x="275.5" y="56.6" class="st1" width="2" height="3.8"/>
				<path id="XMLID_1019_" class="st2" d="M278.2,61.1h-3.4v-5.2h3.4V61.1z M276.1,59.7h0.6v-2.4h-0.6V59.7z"/>
			</g>
		</g>
		<g id="XMLID_816_">
			<rect id="XMLID_1014_" x="269.6" y="60.4" class="st1" width="9.6" height="2.7"/>
			<path id="XMLID_1006_" class="st2" d="M279.9,63.8h-11v-4.1h11V63.8z M270.3,62.4h8.2v-1.3h-8.2V62.4z"/>
		</g>
	</g>
	<g id="XMLID_440_">
		<g id="XMLID_459_">
			<path id="XMLID_463_" class="st1" d="M184.7,124.8c0,1.5-1.2,2.8-2.8,2.8h0c-1.5,0-2.8-1.2-2.8-2.8v-5.4c0-1.5,1.2-2.8,2.8-2.8h0
				c1.5,0,2.8,1.2,2.8,2.8V124.8z"/>
			<path id="XMLID_460_" class="st2" d="M182,128.3L182,128.3c-1.9,0-3.5-1.6-3.5-3.5v-5.4c0-1.9,1.6-3.5,3.5-3.5
				c1.9,0,3.5,1.6,3.5,3.5v5.4C185.4,126.8,183.9,128.3,182,128.3z M182,117.4c-1.1,0-2.1,0.9-2.1,2.1v5.4c0,1.1,0.9,2.1,2.1,2.1h0
				c1.1,0,2.1-0.9,2.1-2.1v-5.4C184,118.3,183.1,117.4,182,117.4z"/>
		</g>
		<g id="XMLID_454_">
			<circle id="XMLID_458_" class="st1" cx="182" cy="116.5" r="5.9"/>
			<path id="XMLID_455_" class="st2" d="M182,123.1c-3.6,0-6.6-3-6.6-6.6c0-3.6,3-6.6,6.6-6.6c3.6,0,6.6,3,6.6,6.6
				C188.6,120.1,185.6,123.1,182,123.1z M182,111.2c-2.9,0-5.2,2.3-5.2,5.2c0,2.9,2.3,5.2,5.2,5.2c2.9,0,5.2-2.3,5.2-5.2
				C187.2,113.6,184.8,111.2,182,111.2z"/>
		</g>
		<g id="XMLID_444_">
			<g id="XMLID_451_">
				<line id="XMLID_453_" class="st4" x1="180.4" y1="118.5" x2="183.5" y2="118.5"/>
				<rect id="XMLID_452_" x="180.4" y="117.8" class="st2" width="3.1" height="1.4"/>
			</g>
			<g id="XMLID_448_">
				<line id="XMLID_450_" class="st4" x1="183.6" y1="117.8" x2="183.6" y2="122.2"/>
				<rect id="XMLID_449_" x="183" y="117.8" class="st2" width="1.4" height="4.4"/>
			</g>
			<g id="XMLID_445_">
				<line id="XMLID_447_" class="st4" x1="180.4" y1="117.8" x2="180.4" y2="122.2"/>
				<rect id="XMLID_446_" x="179.7" y="117.8" class="st2" width="1.4" height="4.4"/>
			</g>
		</g>
		<g id="XMLID_441_">
			<line id="XMLID_443_" class="st3" x1="179.2" y1="124.7" x2="184.7" y2="124.7"/>
			<rect id="XMLID_442_" x="179.2" y="124" class="st2" width="5.5" height="1.4"/>
		</g>
	</g>
	<g id="XMLID_100_">
		<g id="XMLID_138_">
			<path id="XMLID_160_" class="st1" d="M232.8,32.7c0,1.5-1.2,2.8-2.8,2.8h0c-1.5,0-2.8-1.2-2.8-2.8v-5.4c0-1.5,1.2-2.8,2.8-2.8h0
				c1.5,0,2.8,1.2,2.8,2.8V32.7z"/>
			<path id="XMLID_139_" class="st2" d="M230,36.1L230,36.1c-1.9,0-3.5-1.6-3.5-3.5v-5.4c0-1.9,1.6-3.5,3.5-3.5
				c1.9,0,3.5,1.6,3.5,3.5v5.4C233.5,34.6,231.9,36.1,230,36.1z M230,25.2c-1.1,0-2.1,0.9-2.1,2.1v5.4c0,1.1,0.9,2.1,2.1,2.1h0
				c1.1,0,2.1-0.9,2.1-2.1v-5.4C232.1,26.2,231.2,25.2,230,25.2z"/>
		</g>
		<g id="XMLID_129_">
			<circle id="XMLID_137_" class="st1" cx="230" cy="24.3" r="5.9"/>
			<path id="XMLID_130_" class="st2" d="M230,30.9c-3.6,0-6.6-3-6.6-6.6c0-3.6,3-6.6,6.6-6.6c3.6,0,6.6,3,6.6,6.6
				C236.6,28,233.7,30.9,230,30.9z M230,19.1c-2.9,0-5.2,2.3-5.2,5.2c0,2.9,2.3,5.2,5.2,5.2c2.9,0,5.2-2.3,5.2-5.2
				C235.3,21.4,232.9,19.1,230,19.1z"/>
		</g>
		<g id="XMLID_106_">
			<g id="XMLID_126_">
				<line id="XMLID_128_" class="st4" x1="228.4" y1="26.4" x2="231.5" y2="26.4"/>
				<rect id="XMLID_127_" x="228.4" y="25.7" class="st2" width="3.1" height="1.4"/>
			</g>
			<g id="XMLID_123_">
				<line id="XMLID_125_" class="st4" x1="231.7" y1="25.7" x2="231.7" y2="30"/>
				<rect id="XMLID_124_" x="231" y="25.7" class="st2" width="1.4" height="4.4"/>
			</g>
			<g id="XMLID_120_">
				<line id="XMLID_122_" class="st4" x1="228.4" y1="25.7" x2="228.4" y2="30"/>
				<rect id="XMLID_121_" x="227.7" y="25.7" class="st2" width="1.4" height="4.4"/>
			</g>
		</g>
		<g id="XMLID_101_">
			<line id="XMLID_105_" class="st3" x1="227.3" y1="32.6" x2="232.8" y2="32.6"/>
			<rect id="XMLID_102_" x="227.3" y="31.9" class="st2" width="5.5" height="1.4"/>
		</g>
	</g>
	<g id="XMLID_419_">
		<g id="XMLID_435_">
			<rect id="XMLID_439_" x="138.9" y="85.8" class="st1" width="3.5" height="6.2"/>
			<path id="XMLID_436_" class="st2" d="M143,92.7h-4.8v-7.6h4.8V92.7z M139.6,91.3h2.1v-4.8h-2.1V91.3z"/>
		</g>
		<g id="XMLID_431_">
			<path id="XMLID_432_" class="st2" d="M142.9,96.4h-3.1v-5.1h3.1V96.4z M141.1,95h0.3v-2.3h-0.3V95z"/>
		</g>
		<g id="XMLID_426_">
			<polygon id="XMLID_430_" class="st1" points="147.3,94.6 142.4,92 142.4,85.8 147.3,83.2 			"/>
			<path id="XMLID_427_" class="st2" d="M148,95.8l-6.3-3.3v-7.1L148,82V95.8z M143,91.6l3.5,1.9v-9.2l-3.5,1.9V91.6z"/>
		</g>
		<g id="XMLID_424_">
			<rect id="XMLID_425_" x="149.8" y="88.2" class="st2" width="2.4" height="1.4"/>
		</g>
		<g id="XMLID_422_">
			
				<rect id="XMLID_423_" x="150.3" y="83.3" transform="matrix(0.3571 0.9341 -0.9341 0.3571 176.0148 -86.6591)" class="st2" width="1.4" height="2.5"/>
		</g>
		<g id="XMLID_420_">
			
				<rect id="XMLID_421_" x="149.7" y="92.7" transform="matrix(0.9342 0.3569 -0.3569 0.9342 43.2632 -47.7214)" class="st2" width="2.5" height="1.4"/>
		</g>
	</g>
	<g id="XMLID_402_">
		<g id="XMLID_414_">
			<rect id="XMLID_418_" x="105.6" y="213.4" class="st1" width="15.1" height="11.8"/>
			<path id="XMLID_415_" class="st2" d="M121.5,225.9h-16.5v-13.2h16.5V225.9z M106.3,224.5h13.8v-10.5h-13.8V224.5z"/>
		</g>
		<g id="XMLID_409_">
			<rect id="XMLID_413_" x="108.6" y="216.1" class="st1" width="9.1" height="6.3"/>
			<path id="XMLID_410_" class="st2" d="M118.5,223.1h-10.5v-7.7h10.5V223.1z M109.3,221.7h7.8v-4.9h-7.8V221.7z"/>
		</g>
		<g id="XMLID_406_">
			<line id="XMLID_408_" class="st5" x1="109.2" y1="227.7" x2="117" y2="227.7"/>
			<rect id="XMLID_407_" x="109.2" y="227" class="st2" width="7.9" height="1.4"/>
		</g>
		<g id="XMLID_403_">
			<line id="XMLID_405_" class="st5" x1="113.2" y1="225.4" x2="113.2" y2="228"/>
			<rect id="XMLID_404_" x="112.5" y="225.4" class="st2" width="1.4" height="2.6"/>
		</g>
	</g>
	<g id="XMLID_385_">
		<g id="XMLID_397_">
			<rect id="XMLID_401_" x="20.8" y="68.2" class="st1" width="15.1" height="11.8"/>
			<path id="XMLID_398_" class="st2" d="M36.6,80.7H20.1V67.5h16.5V80.7z M21.4,79.3h13.8V68.9H21.4V79.3z"/>
		</g>
		<g id="XMLID_392_">
			<rect id="XMLID_396_" x="23.8" y="71" class="st1" width="9.1" height="6.3"/>
			<path id="XMLID_393_" class="st2" d="M33.6,78H23.1v-7.7h10.5V78z M24.4,76.6h7.8v-4.9h-7.8V76.6z"/>
		</g>
		<g id="XMLID_389_">
			<line id="XMLID_391_" class="st5" x1="24.3" y1="82.5" x2="32.2" y2="82.5"/>
			<rect id="XMLID_390_" x="24.3" y="81.8" class="st2" width="7.9" height="1.4"/>
		</g>
		<g id="XMLID_386_">
			<line id="XMLID_388_" class="st5" x1="28.3" y1="80.2" x2="28.3" y2="82.8"/>
			<rect id="XMLID_387_" x="27.6" y="80.2" class="st2" width="1.4" height="2.6"/>
		</g>
	</g>
	<g id="XMLID_368_">
		<g id="XMLID_380_">
			<rect id="XMLID_384_" x="271.7" y="22.3" class="st1" width="15.1" height="11.8"/>
			<path id="XMLID_381_" class="st2" d="M287.5,34.8H271V21.6h16.5V34.8z M272.4,33.4h13.8V23h-13.8V33.4z"/>
		</g>
		<g id="XMLID_375_">
			<rect id="XMLID_379_" x="274.7" y="25.1" class="st1" width="9.1" height="6.3"/>
			<path id="XMLID_376_" class="st2" d="M284.5,32.1H274v-7.7h10.5V32.1z M275.4,30.7h7.8v-4.9h-7.8V30.7z"/>
		</g>
		<g id="XMLID_372_">
			<line id="XMLID_374_" class="st5" x1="275.3" y1="36.6" x2="283.1" y2="36.6"/>
			<rect id="XMLID_373_" x="275.3" y="35.9" class="st2" width="7.9" height="1.4"/>
		</g>
		<g id="XMLID_369_">
			<line id="XMLID_371_" class="st5" x1="279.3" y1="34.3" x2="279.3" y2="36.9"/>
			<rect id="XMLID_370_" x="278.6" y="34.3" class="st2" width="1.4" height="2.6"/>
		</g>
	</g>
	<g id="XMLID_282_">
		<g id="XMLID_314_">
			<rect id="XMLID_367_" x="110.9" y="7.6" class="st1" width="15.1" height="11.8"/>
			<path id="XMLID_317_" class="st2" d="M126.7,20.1h-16.5V6.9h16.5V20.1z M111.6,18.7h13.8V8.3h-13.8V18.7z"/>
		</g>
		<g id="XMLID_289_">
			<rect id="XMLID_305_" x="113.9" y="10.3" class="st1" width="9.1" height="6.3"/>
			<path id="XMLID_290_" class="st2" d="M123.7,17.3h-10.5V9.6h10.5V17.3z M114.6,15.9h7.8V11h-7.8V15.9z"/>
		</g>
		<g id="XMLID_286_">
			<line id="XMLID_288_" class="st5" x1="114.5" y1="21.9" x2="122.3" y2="21.9"/>
			<rect id="XMLID_287_" x="114.5" y="21.2" class="st2" width="7.9" height="1.4"/>
		</g>
		<g id="XMLID_283_">
			<line id="XMLID_285_" class="st5" x1="118.5" y1="19.6" x2="118.5" y2="22.2"/>
			<rect id="XMLID_284_" x="117.8" y="19.6" class="st2" width="1.4" height="2.6"/>
		</g>
	</g>
	<g id="XMLID_166_">
		<g id="XMLID_234_">
			<line id="XMLID_236_" class="st2" x1="9.3" y1="112.5" x2="20.1" y2="112.5"/>
			<rect id="XMLID_235_" x="9.3" y="111.2" class="st2" width="10.8" height="2.4"/>
		</g>
		<g id="XMLID_232_">
			<polygon id="XMLID_233_" class="st2" points="17.3,118.9 15.3,117.5 19.1,112.4 15.3,107.3 17.3,105.8 22.2,112.5 			"/>
		</g>
		<g id="XMLID_167_">
			<line id="XMLID_231_" class="st2" x1="23.1" y1="106.6" x2="23.1" y2="118.2"/>
			<rect id="XMLID_229_" x="21.8" y="106.6" class="st2" width="2.4" height="11.6"/>
		</g>
	</g>
	<g id="XMLID_161_">
		<g id="XMLID_162_">
			<g id="XMLID_164_">
				<polygon id="XMLID_165_" class="st2" points="157.8,171.6 155.6,170.7 157.8,164.9 153.6,164.9 157,155.8 159.3,156.7 
					157.1,162.5 161.3,162.5 				"/>
			</g>
		</g>
	</g>
	<g id="XMLID_150_">
		<g id="XMLID_156_">
			<line id="XMLID_158_" class="st3" x1="96.5" y1="73.2" x2="108" y2="73.2"/>
			<rect id="XMLID_157_" x="96.5" y="72" class="st2" width="11.6" height="2.4"/>
		</g>
		<g id="XMLID_154_">
			<polygon id="XMLID_155_" class="st2" points="105,80.1 103,78.7 107.1,73.2 103,67.6 105,66.2 110.2,73.2 			"/>
		</g>
		<g id="XMLID_151_">
			<line id="XMLID_153_" class="st3" x1="96.5" y1="66.9" x2="96.5" y2="79.4"/>
			<rect id="XMLID_152_" x="95.2" y="66.9" class="st2" width="2.4" height="12.5"/>
		</g>
	</g>
	<g id="XMLID_141_">
		<g id="XMLID_146_">
			<path id="XMLID_147_" class="st2" d="M23.1,245c-4.5,0-8.1-3.6-8.1-8.1c0-4.5,3.6-8.1,8.1-8.1s8.1,3.6,8.1,8.1
				C31.2,241.3,27.5,245,23.1,245z M23.1,231.2c-3.1,0-5.7,2.5-5.7,5.7c0,3.1,2.5,5.7,5.7,5.7s5.7-2.5,5.7-5.7
				C28.7,233.7,26.2,231.2,23.1,231.2z"/>
		</g>
		<g id="XMLID_142_">
			<path id="XMLID_143_" class="st2" d="M23.1,241.4c-2.5,0-4.5-2-4.5-4.5c0-2.5,2-4.5,4.5-4.5c2.5,0,4.5,2,4.5,4.5
				C27.6,239.3,25.5,241.4,23.1,241.4z M23.1,234.8c-1.1,0-2.1,0.9-2.1,2.1c0,1.1,0.9,2.1,2.1,2.1s2.1-0.9,2.1-2.1
				C25.1,235.7,24.2,234.8,23.1,234.8z"/>
		</g>
	</g>
	<g id="XMLID_109_">
		<g id="XMLID_132_">
			<line id="XMLID_134_" class="st2" x1="88.9" y1="293.2" x2="99.7" y2="293.2"/>
			<rect id="XMLID_133_" x="88.9" y="292" class="st2" width="10.8" height="2.4"/>
		</g>
		<g id="XMLID_119_">
			<polygon id="XMLID_131_" class="st2" points="96.9,299.7 95,298.2 98.8,293.2 95,288.1 96.9,286.6 101.8,293.2 			"/>
		</g>
		<g id="XMLID_111_">
			<line id="XMLID_118_" class="st2" x1="102.7" y1="287.3" x2="102.7" y2="299"/>
			<rect id="XMLID_116_" x="101.5" y="287.3" class="st2" width="2.4" height="11.6"/>
		</g>
	</g>
	<g id="XMLID_94_">
		<g id="XMLID_103_">
			<g id="XMLID_104_">
				<polygon id="XMLID_108_" class="st2" points="155.8,301.8 153.5,300.9 155.7,295.1 151.5,295.1 155,286 157.3,286.9 
					155.1,292.7 159.3,292.7 				"/>
			</g>
		</g>
	</g>
	<g id="XMLID_23_">
		<g id="XMLID_79_">
			<line id="XMLID_86_" class="st3" x1="209.6" y1="244.3" x2="221.2" y2="244.3"/>
			<rect id="XMLID_80_" x="209.6" y="243.1" class="st2" width="11.6" height="2.4"/>
		</g>
		<g id="XMLID_47_">
			<polygon id="XMLID_55_" class="st2" points="218.1,251.2 216.2,249.8 220.3,244.3 216.2,238.7 218.1,237.3 223.3,244.3 			"/>
		</g>
		<g id="XMLID_24_">
			<line id="XMLID_26_" class="st3" x1="209.6" y1="238" x2="209.6" y2="250.5"/>
			<rect id="XMLID_25_" x="208.4" y="238" class="st2" width="2.4" height="12.5"/>
		</g>
	</g>
	<g id="XMLID_14_">
		<g id="XMLID_20_">
			<line id="XMLID_22_" class="st3" x1="197.5" y1="147.7" x2="209.1" y2="147.7"/>
			<rect id="XMLID_21_" x="197.5" y="146.5" class="st2" width="11.6" height="2.4"/>
		</g>
		<g id="XMLID_18_">
			<polygon id="XMLID_19_" class="st2" points="206.1,154.6 204.1,153.2 208.2,147.7 204.1,142.1 206.1,140.7 211.3,147.7 			"/>
		</g>
		<g id="XMLID_15_">
			<line id="XMLID_17_" class="st3" x1="197.5" y1="141.4" x2="197.5" y2="153.9"/>
			<rect id="XMLID_16_" x="196.3" y="141.4" class="st2" width="2.4" height="12.5"/>
		</g>
	</g>
</g>
</svg>
